<?xml version="1.0" encoding="utf-8"?>
<!-- Generator: Adobe Illustrator 19.1.0, SVG Export Plug-In . SVG Version: 6.00 Build 0)  -->
<!DOCTYPE svg PUBLIC "-//W3C//DTD SVG 1.1//EN" "http://www.w3.org/Graphics/SVG/1.1/DTD/svg11.dtd">
<svg version="1.1" id="Capa_1" xmlns="http://www.w3.org/2000/svg" xmlns:xlink="http://www.w3.org/1999/xlink" x="0px" y="0px"
	 viewBox="-255 -112 512 512" style="enable-background:new -255 -112 512 512;" xml:space="preserve">
<style type="text/css">
	.st0{fill:#407196;}
</style>
<g>
	<path class="st0" d="M1-112c-141.4,0-256,114.6-256,256S-140.4,400,1,400s256-114.6,256-256S142.4-112,1-112z M1,360
		c-119.3,0-216-96.7-216-216S-118.3-72,1-72s216,96.7,216,216S120.3,360,1,360z"/>
	<path class="st0" d="M61.8,104.8H17.2V72.3c0-10,10.3-12.3,15.1-12.3s28.8,0,28.8,0V16.2l-33-0.2c-45,0-55.2,32.7-55.2,53.7v35.1
		h-32.6V150h32.6c0,58,0,122,0,122h44.3c0,0,0-64.6,0-122h37.7L61.8,104.8z"/>
</g>
</svg>
