<?xml version="1.0" encoding="utf-8"?>
<!-- Generator: Adobe Illustrator 19.1.0, SVG Export Plug-In . SVG Version: 6.00 Build 0)  -->
<!DOCTYPE svg PUBLIC "-//W3C//DTD SVG 1.1//EN" "http://www.w3.org/Graphics/SVG/1.1/DTD/svg11.dtd">
<svg version="1.1" id="Capa_1" xmlns="http://www.w3.org/2000/svg" xmlns:xlink="http://www.w3.org/1999/xlink" x="0px" y="0px"
	 viewBox="-255 -112 512 512" style="enable-background:new -255 -112 512 512;" xml:space="preserve">
<style type="text/css">
	.st0{fill:#FFFFFF;}
</style>
<g>
	<path class="st0" d="M1-112c-141.2,0-256,114.8-256,256S-140.2,400,1,400s256-114.8,256-256S142.2-112,1-112z M1,370.7
		c-125,0-226.7-101.7-226.7-226.7S-124-82.7,1-82.7S227.7,19,227.7,144S126,370.7,1,370.7z"/>
	<path class="st0" d="M94.2,18.7H-92.2c-17,0-30.9,13.9-30.9,30.9v188.8c0,17,13.9,30.9,30.9,30.9H94.2c17,0,30.9-13.9,30.9-30.9
		V49.6C125.1,32.6,111.3,18.7,94.2,18.7z M95.9,238.4c0,0.9-0.7,1.6-1.6,1.6H-92.2c-0.9,0-1.6-0.7-1.6-1.6V49.6
		c0-0.9,0.7-1.6,1.6-1.6H94.2c0.9,0,1.6,0.7,1.6,1.6V238.4z"/>
	<rect x="43.7" y="69.9" class="st0" width="33.5" height="30.8"/>
	<circle class="st0" cx="1" cy="156.4" r="33.1"/>
	<path class="st0" d="M53.8,156.3C53.8,185.4,30.1,209,1,209s-52.8-23.6-52.8-52.8l0.1-23.5h-23.6v87.5H77.3v-87.5H53.9L53.8,156.3z
		"/>
</g>
</svg>
