<?xml version="1.0" encoding="utf-8"?>
<!-- Generator: Adobe Illustrator 19.1.0, SVG Export Plug-In . SVG Version: 6.00 Build 0)  -->
<!DOCTYPE svg PUBLIC "-//W3C//DTD SVG 1.1//EN" "http://www.w3.org/Graphics/SVG/1.1/DTD/svg11.dtd">
<svg version="1.1" id="Layer_1" xmlns="http://www.w3.org/2000/svg" xmlns:xlink="http://www.w3.org/1999/xlink" x="0px" y="0px"
	 viewBox="0 0 973.3 1005.1" style="enable-background:new 0 0 973.3 1005.1;" xml:space="preserve">
<path d="M836.6,231.9c0,0,1.3,1.5,3.8,4.4c1.2,1.5,2.8,3.3,4.6,5.4c1.8,2.1,4,4.6,6.2,7.6c2.3,2.9,4.8,6.2,7.6,9.9
	c2.7,3.7,5.6,7.8,8.7,12.2c6.2,8.9,12.9,19.3,19.8,31.4c13.9,24.1,28.5,55.1,39.7,92.6c5.7,18.7,10.2,39.1,13.6,60.9
	c1.8,10.9,2.9,22.1,3.8,33.7c0.3,5.8,0.7,11.6,1,17.6c0.1,5.9,0.1,11.8,0.2,17.9c0.2,5.8-0.2,12.1-0.4,18.4
	c-0.1,3.1-0.3,6.3-0.4,9.4c-0.1,3.2-0.5,6.3-0.8,9.4c-0.3,3.1-0.6,6.3-0.9,9.5c-0.3,3.2-0.5,6.4-1.1,9.6c-0.9,6.4-1.8,12.8-2.8,19.3
	c-4.5,25.9-11.4,52.2-21,78.5c-19.1,52.5-49.4,104.6-90.6,150.1c-20.5,22.8-43.8,43.8-69.3,62.5c-25.5,18.7-53.2,35.1-82.7,48.4
	c-29.4,13.3-60.5,23.7-92.6,30.5l-12.1,2.3c-4,0.7-8,1.6-12.1,2.1l-12.2,1.7c-4.1,0.6-8.1,1.2-12.2,1.5l-12.3,1.1l-6.1,0.5l-6.1,0.3
	l-12.3,0.5l-3.1,0.1l-1.5,0.1l-0.8,0c-0.5,0-0.1,0-1.2,0l-5.9-0.1l-11.9-0.2c-2,0-3.9,0-6-0.1l-6.3-0.4c-8.3-0.6-16.8-0.9-24.9-2
	c-8.1-1-16.3-1.7-24.4-3.3l-12.1-2c-4-0.6-8-1.7-12-2.5c-32-6.8-63.1-17.3-92.5-30.6c-59-26.6-110.9-65.4-151.9-111
	c-41.1-45.6-71.4-97.7-90.5-150.3c-19-52.7-26.9-105.6-26.9-154.1c0-1.5,0-3-0.1-4.5l0-0.6l0-0.8l0-1.1l0.1-2.2
	c0.1-2.9,0.2-5.8,0.3-8.7c0.1-2.9,0.1-5.8,0.3-8.7c0.2-3,0.4-5.9,0.7-8.8c0.4-5.8,0.8-11.6,1.6-17.2c0.7-5.6,1.3-11.2,2.2-16.6
	c3.3-21.8,8.3-42.1,13.8-60.9c1.5-4.7,2.9-9.3,4.3-13.8c1.6-4.4,3.2-8.8,4.7-13.1c0.8-2.1,1.5-4.3,2.3-6.4c0.9-2.1,1.7-4.1,2.5-6.2
	c1.7-4,3.3-8,5-11.9c7.1-15.3,13.9-29.2,21-41.2c1.7-3,3.4-6,5.1-8.8c1.7-2.8,3.5-5.5,5.1-8.1c1.7-2.6,3.3-5.1,4.9-7.6
	c1.6-2.4,3.3-4.7,4.8-6.9c3.2-4.4,5.9-8.6,8.7-12.2c2.8-3.6,5.3-6.9,7.6-9.9c2.2-3,4.4-5.5,6.2-7.6c1.8-2.2,3.4-4,4.6-5.4
	c2.5-2.9,3.8-4.4,3.8-4.4s-1.1,1.6-3.3,4.8c-1.1,1.6-2.5,3.5-4.1,5.8c-1.6,2.3-3.6,4.9-5.5,8.1c-8.3,12.3-19.6,30.8-31.6,55.5
	c-6.1,12.3-11.9,26.4-17.8,41.8c-1.4,3.9-2.7,7.9-4.1,11.9c-0.7,2-1.4,4.1-2.1,6.1c-0.7,2.1-1.3,4.2-1.9,6.3
	c-1.3,4.3-2.5,8.6-3.8,13c-1.1,4.5-2.2,9-3.4,13.6c-4.3,18.5-8,38.3-9.9,59.5c-0.6,5.3-0.8,10.6-1.3,16.1
	c-0.5,5.4-0.6,10.9-0.8,16.4c-0.1,2.7-0.2,5.5-0.3,8.3c0,2.8,0.1,5.7,0.1,8.6c0,2.9,0.1,5.8,0.1,8.8l0,2.2l0,1.1c0,0.1,0,0.6,0,0.3
	l0,0.5c0.1,1.4,0.2,2.9,0.3,4.3c0.4,5.8,0.7,11.6,1.1,17.5c0.7,5.9,1.3,11.8,2,17.8l0.5,4.5l0.7,4.5c0.5,3,1,6,1.5,9
	c0.5,3,1,6.1,1.5,9.1c0.7,3,1.3,6,2,9.1c5.2,24.3,12.4,49.1,22.2,73.6c19.6,48.9,49.4,96.8,88.7,138.5
	c19.7,20.8,41.5,40.2,65.5,57.1c6.1,4.1,12.1,8.4,18.3,12.3c3.2,1.9,6.3,3.9,9.5,5.8c3.2,1.9,6.3,3.9,9.6,5.6
	c12.9,7.3,26.2,14.1,39.9,20.1c27.4,12.1,56.2,21.3,85.8,27.6c3.7,0.7,7.4,1.7,11.1,2.3l11.2,1.8c7.5,1.4,15,2.1,22.6,2.9
	c7.6,1,14.9,1.2,22.4,1.7l5.6,0.4c1.9,0.1,3.9,0.1,5.9,0.1l11.9,0.1l5.9,0.1l5.3-0.2l11.4-0.4l5.7-0.2l5.7-0.5l11.3-1
	c3.8-0.2,7.5-0.8,11.3-1.3l11.3-1.6c3.8-0.4,7.5-1.3,11.2-1.9l11.2-2.1c7.4-1.5,14.7-3.5,22.1-5.2c7.3-2,14.5-4.2,21.7-6.3
	c7.1-2.5,14.2-4.9,21.3-7.5l10.4-4.2l5.2-2.1c1.7-0.7,3.5-1.4,5.2-2.2c27.4-12.1,53.3-26.9,77.3-43.9c24-17,45.9-36.2,65.6-57
	c39.4-41.6,69.2-89.5,88.8-138.4c9.9-24.4,17.3-49.1,22.6-73.5c1.2-6.1,2.3-12.2,3.4-18.2c0.6-3,1-6,1.4-9c0.4-3,0.8-6,1.2-9
	c0.4-3,0.9-6,1.1-8.9c0.3-2.9,0.5-5.9,0.8-8.8c0.5-5.8,1.2-11.5,1.2-17.5c1.4-23.4,0.3-45.6-1.7-66.7c-2.1-21.1-5.3-41.1-9.8-59.5
	c-1-4.6-2.4-9.1-3.5-13.6c-0.6-2.2-1.2-4.4-1.8-6.6c-0.7-2.2-1.3-4.3-2-6.4c-1.3-4.2-2.6-8.4-3.9-12.5c-1.4-4-2.8-8-4.2-11.9
	c-1.3-3.9-2.8-7.7-4.3-11.3c-1.5-3.7-2.9-7.3-4.3-10.8c-1.5-3.5-3-6.8-4.5-10.1c-1.5-3.3-2.9-6.5-4.5-9.6
	c-12.1-24.7-23.3-43.3-31.6-55.5c-2-3.1-3.9-5.8-5.5-8.1c-1.6-2.3-3-4.3-4.1-5.8C837.7,233.5,836.6,231.9,836.6,231.9z"/>
<g>
	<path d="M178.6,175.1l-39.3-10c-1.5-0.4-1.9-2.2-0.7-3.2l7.7-6.8c0.6-0.5,1.3-0.5,1.8-0.4l27.3,6.7l-3.3-27.9c0-0.5,0-1.2,0.6-1.7
		l7.7-6.8c1.2-1.1,2.9-0.4,3.1,1.1l4.8,40.4l21.2,24c0.7,0.8,0.6,2-0.2,2.7l-6.9,6.1c-0.8,0.7-2,0.6-2.7-0.2L178.6,175.1z"/>
	<path d="M289.6,134l2.4-74.4c0-0.7,0.3-1.3,1.1-1.7l0.9-0.4c0.9-0.4,1.5-0.1,2,0.4l54.8,50.2c1.1,1,0.8,2.5-0.6,3.1l-8,3.4
		c-1.4,0.6-2.3,0.3-3.5-0.7l-8.8-8.1l-27.6,11.7l-0.3,11.9c0,1.1-0.4,2.4-1.9,3l-8,3.4C290.8,136.3,289.5,135.4,289.6,134z
		 M321.2,97.4l-17.9-16.4l-0.3,0.1l-0.4,24.2L321.2,97.4z"/>
	<path d="M481.6,21.2c0-1,0.9-1.9,2-1.8l23,0.8c11.9,0.4,20.9,8.7,20.5,19.3c-0.3,7.7-6.8,13.5-11.6,15.6
		c5.3,1.9,12.8,7.6,12.5,16.8c-0.4,11.2-10.3,19-22.5,18.6l-24.3-0.8c-1.1,0-1.9-1-1.8-2L481.6,21.2z M504.8,78.5
		c5,0.2,9.2-3.6,9.3-8.8c0.2-5-4.7-8.9-9.9-9.1l-10.9-0.4l-0.6,17.9L504.8,78.5z M504.3,49.6c5.1,0.2,8.8-3.7,8.9-8.7
		c0.2-5-3.2-8.6-8.3-8.8l-10.7-0.4l-0.6,17.6L504.3,49.6z"/>
	<path d="M674.3,55.7c18.6,7.6,27.3,28.7,19.7,47.2c-7.6,18.6-28.5,27.2-47.1,19.6c-18.6-7.6-27.3-28.5-19.6-47
		C634.9,56.9,655.8,48,674.3,55.7z M651.8,110.4c11.7,4.8,25.3-0.8,30.1-12.5c4.8-11.7-0.8-25.4-12.5-30.2
		c-11.7-4.8-25.3,1-30.1,12.7C634.5,92.1,640.2,105.6,651.8,110.4z"/>
	<path d="M802,136c0.7-0.8,1.9-0.9,2.7-0.2l7.1,6.1c0.8,0.7,0.9,1.9,0.2,2.7L768.7,195c-0.7,0.8-1.9,0.9-2.7,0.2l-7.1-6.1
		c-0.8-0.7-0.9-1.9-0.2-2.7L802,136z"/>
</g>
<path d="M888,508.7c-1.4-106.5-43.9-206.3-119.7-281.1c-75.7-74.7-176-115.9-282.3-115.9v0.5c-2.2-0.2-4.4-0.5-5.2-0.5
	c-54.3,0.7-106.8,12-156.1,33.6c-47.6,20.9-90.2,50.4-126.7,87.8c-36.4,37.4-64.9,80.7-84.5,128.9c-20.3,49.9-30.3,102.7-29.6,156.9
	c1.4,106.5,43.9,206.3,119.7,281.1c75.7,74.7,176,115.9,282.3,115.9c1.7,0,3.5,0,5.2,0c54.3-0.7,106.8-12,156.1-33.6
	c47.6-20.9,90.2-50.4,126.7-87.8c36.4-37.4,64.9-80.8,84.5-128.9C878.7,615.7,888.7,562.9,888,508.7z M306.1,828.5
	c-107.7-61.7-180.9-177-182.6-310.1C121,318.3,281.1,154,481.3,151.4c1.6,0,3.2,0,4.7,0c133.8,0,251.1,72.8,313.8,181.2H435.4v39.1
	h197.9L345.1,566V288.3h-39V828.5z M646.7,410.6v377.1L367.1,599.1L646.7,410.6z M490.5,876.2c-1.6,0-3.2,0-4.7,0
	c-49.9,0-97.4-10.1-140.7-28.4V632.1l304.3,205.2C601.6,861.5,547.7,875.4,490.5,876.2z M686.5,815.7V371.7h132.9
	c18,42.3,28.3,88.7,28.9,137.4C849.9,636.8,785.3,749.8,686.5,815.7z"/>
</svg>
