<?xml version="1.0" encoding="utf-8"?>
<!-- Generator: Adobe Illustrator 19.1.0, SVG Export Plug-In . SVG Version: 6.00 Build 0)  -->
<!DOCTYPE svg PUBLIC "-//W3C//DTD SVG 1.1//EN" "http://www.w3.org/Graphics/SVG/1.1/DTD/svg11.dtd">
<svg version="1.1" id="Capa_1" xmlns="http://www.w3.org/2000/svg" xmlns:xlink="http://www.w3.org/1999/xlink" x="0px" y="0px"
	 viewBox="-255 -112 512 512" style="enable-background:new -255 -112 512 512;" xml:space="preserve">
<style type="text/css">
	.st0{fill:#FFFFFF;}
</style>
<g>
	<path class="st0" d="M1-112c-141.4,0-256,114.6-256,256S-140.4,400,1,400s256-114.6,256-256S142.4-112,1-112z M1,360
		c-119.3,0-216-96.7-216-216S-118.3-72,1-72s216,96.7,216,216S120.3,360,1,360z"/>
	<g>
		<g>
			<path class="st0" d="M-126.4,169.6c-2.9,13.5,5.3,32,12.8,38.4v-64C-121.1,150.4-124.2,159.5-126.4,169.6z M92.3,138.2
				c-4.5,0-8.7,0.9-12.6,2.3c-2-33.7-31-60.5-66.8-60.5c-22.9,0-50.6,8.9-62.7,25.6V208H92.3c20.2,0,36.7-15.6,36.7-34.9
				C129,153.8,112.6,138.2,92.3,138.2z M-75.3,208h12.8v-89.6h-12.8V208z M-100.9,208h12.8v-76.8h-12.8V208z"/>
		</g>
	</g>
</g>
</svg>
