<?xml version="1.0" encoding="utf-8"?>
<!-- Generator: Adobe Illustrator 19.1.0, SVG Export Plug-In . SVG Version: 6.00 Build 0)  -->
<!DOCTYPE svg PUBLIC "-//W3C//DTD SVG 1.1//EN" "http://www.w3.org/Graphics/SVG/1.1/DTD/svg11.dtd">
<svg version="1.1" id="Capa_1" xmlns="http://www.w3.org/2000/svg" xmlns:xlink="http://www.w3.org/1999/xlink" x="0px" y="0px"
	 viewBox="-255 -112 512 512" style="enable-background:new -255 -112 512 512;" xml:space="preserve">
<style type="text/css">
	.st0{fill:#407196;}
</style>
<g>
	<path class="st0" d="M1-112c-141.4,0-256,114.6-256,256S-140.4,400,1,400s256-114.6,256-256S142.4-112,1-112z M1,360
		c-119.3,0-216-96.7-216-216S-118.3-72,1-72s216,96.7,216,216S120.3,360,1,360z"/>
	<path class="st0" d="M129,58.9c-4.3,2.6-17.2,7.7-29.3,9c7.7-4.5,19.2-19.2,22-30.9c-7.4,5.1-24.5,12.6-33,12.6l0,0
		C79.1,38.8,65.6,32,50.6,32C21.4,32-2.2,57.5-2.2,88.9c0,4.4,0.5,8.6,1.4,12.7l0,0c-39.6-1.1-85.8-22.4-111.9-59
		c-16,29.9-2.2,63,16,75.1c-6.2,0.5-17.7-0.8-23.1-6.4c-0.4,19.8,8.5,46,40.7,55.6c-6.2,3.6-17.2,2.6-22,1.8
		c1.7,16.8,23.4,38.6,47.2,38.6c-8.5,10.5-37.4,29.7-73.1,23.6c24.3,15.9,52.6,25.2,82.6,25.2c85.2,0,151.4-74.4,147.8-166.1
		c0-0.1,0-0.2,0-0.3c0-0.2,0-0.5,0-0.7c0-0.3,0-0.6,0-0.9C111.1,82.3,121.5,72.2,129,58.9z"/>
</g>
</svg>
