<?xml version="1.0" encoding="utf-8"?>
<!-- Generator: Adobe Illustrator 19.1.0, SVG Export Plug-In . SVG Version: 6.00 Build 0)  -->
<!DOCTYPE svg PUBLIC "-//W3C//DTD SVG 1.1//EN" "http://www.w3.org/Graphics/SVG/1.1/DTD/svg11.dtd">
<svg version="1.1" id="Capa_1" xmlns="http://www.w3.org/2000/svg" xmlns:xlink="http://www.w3.org/1999/xlink" x="0px" y="0px"
	 viewBox="-255 -112 512 512" style="enable-background:new -255 -112 512 512;" xml:space="preserve">
<style type="text/css">
	.st0{fill:#FFFFFF;}
</style>
<g>
	<path class="st0" d="M1-112c-141.4,0-256,114.6-256,256S-140.4,400,1,400s256-114.6,256-256S142.4-112,1-112z M1,360
		c-119.3,0-216-96.7-216-216S-118.3-72,1-72s216,96.7,216,216S120.3,360,1,360z"/>
	<path class="st0" d="M-40.1,16l-10.2,39.5h-1L-62,16h-16.6l21,65.5v27.6h12.1V79.7l22-63.7H-40.1z M12.4,59c0-5.6-1.8-11-5-14.2
		C3.7,41.1,1.9,39-4.2,39c-6.6,0-8.5,2.5-12.4,5.8c-3.9,3.4-5.7,8.2-5.7,13.8v30.6c0,6.2,1.9,11.1,5.8,14.8c3.8,3.6,5.7,5.4,12,5.4
		c6.6,0,7.5-1.8,11.3-5.3c3.8-3.5,5.6-8.4,5.6-14.7L12.4,59L12.4,59z M59,39H47.3v46.6c-1.4,1.6-7.5,9.9-8.6,9.9
		c-1.3,0-1.6-0.4-2.2-1.2c-0.6-0.8-0.9-2-0.9-3.7V39H23.9v56.6c0,4.4,0.4,10.8,2.7,13.2c1.6,1.6,6.6,1.9,11.2-1.6
		c3.5-2.7,6.4-6.4,9.5-12v12.4H59V39z M129,179.9c0-26.4-20.9-47.8-46.8-47.8H-80.2c-25.8,0-46.8,21.4-46.8,47.8v44.3
		c0,26.4,20.9,47.8,46.8,47.8H82.2c25.8,0,46.8-21.4,46.8-47.8V179.9z M64.6,248.6c-5.3,0-9.5-1.7-12.6-5.1c-3-3.3-4.6-7.9-4.6-13.8
		v-27.5c0-5.3,1.7-15,5-18.3c3.4-3.4,7.7-5,13-5c5.5,0,9.6,1.5,12.5,4.6c3,3.2,4.4,13,4.4,18.7v11.6H59.6v15.5
		c0,3.2,0.4,5.5,1.2,6.7c0.8,1.2,2.1,1.9,4,1.9c1.9,0,3.3-0.5,4.1-1.6c0.8-1.1,1.2-3.3,1.2-7v-2.8h12.2v3.2c0,6.3-1.4,11-4.4,14.2
		C74.9,247,70.4,248.6,64.6,248.6z M70.1,204.3v-2.2c0-2.6-0.4-9.8-1.2-10.9c-0.8-1.1-2.1-1.7-4-1.7c-1.9,0-3.2,0.6-4,1.7
		c-0.8,1.1-1.2,8.3-1.2,10.9v2.2H70.1z M24.8,248.7c-2.4,0-4.6-0.5-6.4-1.5c-1.8-0.9-3.6-2.3-5.2-4.3v4.9H0.9v-92.4h11.6v27.9
		c1.7-1.9,4.2-3.4,5.9-4.5c1.9-1,3.8-1.5,5.7-1.5c3.8,0,6.8,1.4,8.8,4.1c2,2.7,3,6.7,3,11.9v41.2c0,4.5-1,8-2.8,10.4
		C31.1,247.5,28.4,248.7,24.8,248.7z M24.4,194.2c0-2.1-1.5-3.8-2.3-4.9c-0.9-1.1-2.2-1.6-3.8-1.6c-0.9,0-1.7,0.2-2.6,0.6
		c-0.8,0.4-2.4,1.1-3.2,1.9v45.5c1,1,2.7,1.8,3.7,2.2c0.9,0.5,1.9,0.7,2.9,0.7c1.5,0,2.6-0.5,3.3-1.4c0.7-0.9,2.1-2.3,2.1-4.4
		L24.4,194.2L24.4,194.2L24.4,194.2z M-22.9,240.2c-2.2,2.5-4.6,5.2-7,6.6c-2.4,1.4-4.8,2-7.1,2c-2.8,0-4.9-0.9-6.4-2.8
		c-1.4-1.9-2.5-4.7-2.5-8.5V179h11.8v54.1c0,1.5,0.3,2.5,0.8,3.2c0.5,0.6,1.4,1,2.5,1c0.9,0,2.8-0.4,4.1-1.4c1.4-0.9,3.4-2,4.5-3.3
		V179h11.5v69.6h-12.2L-22.9,240.2L-22.9,240.2z M-57.2,248.5h-11.7v-81.4h-11.4v-11.6h35v11.6h-11.8L-57.2,248.5L-57.2,248.5z
		 M-4.9,96.8c-1.9,0-3.4-0.5-4.4-1.6c-1.1-1.1-1.6-2.6-1.6-4.6V58.1c0-1.6,0.6-2.9,1.7-3.9c1.1-1,2.5-1.5,4.3-1.5
		c1.9,0,2.8,0.5,4,1.5c1.2,1,1.8,2.2,1.8,3.9v32.5c0,2-0.6,3.5-1.8,4.6C-2.1,96.3-2.9,96.8-4.9,96.8z"/>
</g>
</svg>
